<svg xmlns="http://www.w3.org/2000/svg" class="ionicon" viewBox="0 0 512 512"><rect x="48" y="80" width="416" height="384" rx="48" ry="48" stroke-linejoin="round" class="ionicon-fill-none ionicon-stroke-width"/><path d="M397.82 80H114.18C77.69 80 48 110.15 48 147.2V208h16c0-16 16-32 32-32h320c16 0 32 16 32 32h16v-60.8c0-37.05-29.69-67.2-66.18-67.2z"/><circle cx="296" cy="232" r="24"/><circle cx="376" cy="232" r="24"/><circle cx="296" cy="312" r="24"/><circle cx="376" cy="312" r="24"/><circle cx="136" cy="312" r="24"/><circle cx="216" cy="312" r="24"/><circle cx="136" cy="392" r="24"/><circle cx="216" cy="392" r="24"/><circle cx="296" cy="392" r="24"/><path stroke-linecap="round" stroke-linejoin="round" d="M128 48v32M384 48v32" class="ionicon-fill-none ionicon-stroke-width"/></svg>